<svg width="396" height="120.31368680641184" viewBox="0 0 405.5 123.2" class="looka-1j8o68f">
  <defs id="SvgjsDefs1263"></defs>
  <g id="SvgjsG1264" featurekey="symbolContainer" transform="matrix(2.464,0,0,2.464,0,0)"
    fill="#ffffff">
    <circle cx="25" cy="25" r="25"></circle>
  </g>
  <g id="SvgjsG1265" featurekey="symbolFeature-0"
    transform="matrix(1.2439404434010788,0,0,1.2439404434010788,-0.44763668073287377,8.814230825422944)"
    fill="#311d3f">
    <path xmlns="http://www.w3.org/2000/svg"
      d="M27.55,27.98c0.08-0.1,0.19-0.21,0.29-0.31l-2.689-2.7H25.14c-0.1,0.1-0.199,0.2-0.3,0.31  c-6.18,6.34-10.01,14.99-10.01,24.54c0,9.7,3.95,18.49,10.31,24.86l2.7-2.7c-5.68-5.68-9.189-13.52-9.189-22.16  C18.65,41.34,22.03,33.62,27.55,27.98z M74.86,24.97H74.85l-2.689,2.7c5.68,5.67,9.189,13.51,9.189,22.15  c0,8.64-3.51,16.48-9.189,22.16l2.7,2.7c6.359-6.37,10.31-15.16,10.31-24.86C85.17,40.12,81.22,31.34,74.86,24.97z"></path>
    <path xmlns="http://www.w3.org/2000/svg"
      d="M33.48,33.91c0.1-0.11,0.199-0.21,0.3-0.31l-1.971-1.97H31.8c-0.1,0.1-0.2,0.2-0.29,0.31c-4.49,4.63-7.26,10.93-7.26,17.88  c0,7.1,2.89,13.54,7.55,18.2l1.98-1.98c-4.16-4.15-6.73-9.89-6.73-16.22C27.05,43.65,29.5,38.04,33.48,33.91z M68.2,31.63h-0.01  L66.22,33.6c4.16,4.16,6.73,9.9,6.73,16.22c0,6.33-2.57,12.07-6.73,16.22l1.98,1.98c4.66-4.66,7.55-11.1,7.55-18.2  C75.75,42.72,72.86,36.29,68.2,31.63z"></path>
    <path xmlns="http://www.w3.org/2000/svg"
      d="M79.29,10.6v7.15c0,0-2.87,1.75-7.75,1.75c-2.12,0-4.605-0.443-6.056-0.753L64.75,22.18l-1.23,5.74l-0.63,2.92l-1.38,6.43  l-0.29,1.33l-0.18,0.82l-2.58,12.04l-0.08,0.39c-0.35,1.59-1.1,3.03-2.149,4.2c-1.711,1.94-4.211,3.15-6.98,3.15  c-2.4,0-4.58-0.9-6.24-2.39c-1.93-1.71-3.14-4.21-3.14-6.99c0-2.78,1.21-5.27,3.14-6.99c1.65-1.48,3.84-2.38,6.24-2.38  c2.05,0,3.96,0.67,5.5,1.79l1.5-6.25l0.44-1.83l1.399-5.81l0.66-2.73l1.32-5.48l0.89-3.73l1.4-5.81c0,0,0.05,0.01,0.14,0.03  l0.17,0.04c1.13,0.22,5.04,0.95,8.87,0.95C76.04,11.62,79.29,10.6,79.29,10.6z"></path>
    <path xmlns="http://www.w3.org/2000/svg"
      d="M63.97,40.08l-0.56,2.62c1.14,2.12,1.78,4.55,1.78,7.12c0,4.19-1.7,7.98-4.46,10.73v0.01l1.31,1.3c3.09-3.08,5-7.34,5-12.04  C67.04,46.2,65.91,42.84,63.97,40.08z M38.98,39.4c0.09-0.1,0.189-0.21,0.289-0.31l-1.31-1.31c-0.1,0.1-0.2,0.2-0.29,0.31  c-2.92,3.06-4.71,7.18-4.71,11.73c0,4.7,1.91,8.96,5,12.04l1.31-1.3v-0.01c-2.76-2.75-4.46-6.54-4.46-10.73  C34.81,45.8,36.4,42.12,38.98,39.4z"></path>
  </g>
  <g id="SvgjsG1266" featurekey="nameFeature-0"
    transform="matrix(1.8014161523463268,0,0,1.8014161523463268,139.37145277590966,17.068565444819903)"
    fill="#ffffff">
    <path
      d="M9.16 34.04 c-3.12 -0.08 -5.24 -1.44 -6.52 -3.96 c-0.24 -0.52 -0.36 -1.12 -0.44 -1.72 c-0.08 -0.28 0 -0.64 0.08 -0.92 c0.2 -0.64 0.84 -1.16 1.4 -1.12 c0.64 0.04 1.08 0.44 1.2 1.04 c0.16 0.6 0.24 1.28 0.16 1.92 c-0.24 1.96 0.2 2.96 2.12 3.44 c1.24 0.32 2.48 0.28 3.72 -0.08 c1.4 -0.44 2 -1.4 1.8 -2.88 c-0.32 -2.04 -1.6 -3.28 -3.4 -4.08 c-1.16 -0.56 -2.32 -1.08 -3.48 -1.68 c-1.2 -0.64 -2.12 -1.6 -2.84 -2.72 c-1.8 -2.84 -0.96 -6.32 1.92 -8 c3.44 -2 7.84 -0.84 9.8 2.64 c0.32 0.6 0.48 1.28 0.68 1.96 c0.12 0.4 0.2 0.84 -0.32 1 s-0.64 -0.32 -0.72 -0.72 c-0.48 -2.52 -2.2 -3.84 -4.52 -4.64 c-0.28 -0.12 -0.64 -0.2 -0.96 -0.24 c-1.16 -0.12 -2.12 0.84 -1.92 1.96 c0.08 0.6 0.32 1.16 0.6 1.68 c0.88 1.6 2.2 2.76 3.8 3.64 c1.28 0.72 2.56 1.44 3.8 2.2 c1.24 0.8 2.16 1.88 2.76 3.24 c1.2 2.56 0.2 5.36 -2.36 6.52 c-0.92 0.4 -1.92 0.68 -2.92 0.88 c-1.24 0.32 -2.56 0.48 -3.44 0.64 z M13.4 32.2 c0.76 -0.32 1.36 -0.52 1.92 -0.84 c1.88 -1.04 2.44 -2.96 1.56 -4.92 c-0.64 -1.4 -1.72 -2.4 -3.04 -3.16 c-1.24 -0.76 -2.6 -1.36 -3.8 -2.2 c-2.44 -1.68 -4.4 -3.68 -4.24 -6.96 c-1.88 0.72 -3.04 2.88 -2.64 4.8 c0.4 1.76 1.44 3.08 2.96 3.96 c1.28 0.76 2.68 1.32 4 1.96 c2.92 1.4 4.28 4.24 3.28 7.36 z M3.84 29.759999999999998 c0 -0.76 0.44 -1.56 -0.16 -2.28 c-0.6 0.64 -0.56 1.24 0.16 2.28 z M29.882 33.28 c-1.4 -0.04 -1.64 -0.32 -1.68 -1.88 l-0.12 -3.48 l-0.36 -13.24 c-0.04 -1.36 0.12 -1.48 1.32 -1.6 c0.8 -0.12 1.6 -0.24 2.36 -0.32 c1.2 -0.08 1.48 0.24 1.4 1.56 l0 0.4 c1.04 -0.52 2.04 -1.16 3.12 -1.52 c3.52 -1.2 6.4 0.76 7.12 4.8 c0.28 1.56 0.32 3.08 -0.16 4.64 c-0.64 2 -1.88 3.12 -3.76 3.4 c-2.08 0.32 -4 0 -5.68 -1.56 c-0.12 -0.12 -0.28 -0.2 -0.44 -0.32 c0 2.84 -0.08 3.24 -0.04 6 l0 1.6 c-0.04 1.12 -0.36 1.48 -1.32 1.52 c-0.6 0.04 -1.16 0.04 -1.76 0 z M30.682000000000002 32.08 c1.12 0.04 1.16 0 1.12 -1.24 l-0.12 -16.4 c0 -0.08 -0.04 -0.2 -0.08 -0.4 l-1.88 0.2 c-0.88 0.08 -0.92 0.12 -0.88 1.12 l0.44 14.2 c0.04 1.56 0.04 0.8 0.12 2.4 c0.44 0.04 0.84 0.12 1.28 0.12 z M38.442 24.92 c2.16 -0.24 3.2 -1.32 3.6 -3.72 c0.28 -1.6 0 -3.16 -0.6 -4.64 c-0.56 -1.4 -1.6 -2.12 -2.92 -2.36 c-1.44 -0.24 -2.76 0.24 -4.04 1 c-1.2 0.72 -2 1.68 -1.76 3.12 c0.08 1.36 0.12 2.48 0.16 3.6 c0.04 0.2 0.08 0.48 0.2 0.64 c1.52 1.56 3.2 2.6 5.36 2.36 z M62.804 33.24 c-3.6 0.32 -6.36 -0.88 -8.32 -3.76 c-1.12 -1.64 -1.88 -3.36 -2.12 -5.24 c-0.2 -1.88 0.36 -3.64 1.2 -5.28 c1.04 -2.12 2.64 -3.8 4.6 -5.2 c2.44 -1.72 6.28 -1.88 8.92 0.08 c3.48 2.56 4.52 4.36 4.56 8.92 c-0.12 2.12 -0.76 4.68 -2.4 6.96 c-1.52 2.16 -3.68 3.28 -6.44 3.52 z M63.284 32.12 c1.96 -0.28 3.56 -1.08 4.72 -2.56 c1.72 -2.2 2.36 -4.68 2.56 -7.36 c-0.04 -0.56 -0.08 -1.16 -0.16 -1.72 c-0.4 -3.12 -3.32 -6.16 -6.48 -6.88 c-0.6 -0.16 -1.04 -0.04 -1.44 0.4 c-1.4 1.56 -2.72 3.2 -3.64 5.08 c-0.64 1.36 -0.96 2.8 -0.72 4.32 c0.08 0.48 0.16 0.96 0.28 1.44 c0.64 2.36 1.68 4.52 3.12 6.56 c0.44 0.64 0.96 0.88 1.76 0.72 z M60.684 32.2 c-0.16 -0.28 -0.28 -0.44 -0.36 -0.56 c-1.24 -1.84 -2.2 -3.84 -2.84 -5.92 c-0.68 -2.16 -0.92 -4.36 0.12 -6.48 c0.68 -1.36 1.56 -2.64 2.4 -3.96 c0.32 -0.52 0.76 -1 1.16 -1.52 c-0.04 -0.04 -0.04 -0.08 -0.08 -0.16 c-0.48 0.16 -1 0.24 -1.36 0.52 c-1.08 0.76 -2.2 1.52 -3.12 2.48 c-2 2.04 -3.24 4.48 -3.08 7.32 c0.12 2.68 1.48 4.88 3.48 6.76 c0.92 0.88 2.16 1.32 3.68 1.52 z M90.406 33.72 c-0.52 0 -1 0 -1.52 -0.04 c-0.88 -0.08 -1.24 -0.44 -1.28 -1.36 c-0.04 -1.48 -0.08 -2.92 -0.16 -4.4 l-0.56 -11.04 c-0.08 -0.88 -0.04 -1.76 -0.04 -2.72 c-1.04 -0.04 -2.04 -0.12 -3.08 -0.16 l-2.28 0 c-0.36 0 -0.76 -0.04 -0.76 -0.56 c0 -0.48 0.4 -0.56 0.8 -0.56 c1.88 0.04 3.76 0.08 5.64 0.08 c3.24 -0.04 6.48 -0.08 9.72 -0.16 c0.2 0 0.48 -0.04 0.6 0.08 c0.24 0.16 0.48 0.44 0.52 0.72 c0.04 0.4 -0.36 0.36 -0.64 0.36 l-5.52 0.12 c0.08 1.84 0.2 3.56 0.28 5.24 c0.12 4.08 0.24 8.12 0.32 12.16 c0.04 2.16 -0.32 2.2 -2.04 2.24 z M88.846 32.56 l2.52 0 c-0.04 -6.24 -0.2 -12.36 -0.64 -18.52 l-2.68 0 c-0.16 1.4 0.52 17.56 0.8 18.52 z M109.128 33.6 c-0.4 0.04 -0.92 0.04 -1.28 -0.16 c-0.24 -0.12 -0.28 -0.56 -0.08 -0.76 c0.12 -0.12 0.28 -0.12 0.4 -0.12 c0.64 -0.04 1.24 -0.08 1.84 -0.08 c0.36 0.04 0.52 -0.12 0.52 -0.52 c-0.08 -3.76 -0.08 -6.6 -0.12 -10.4 c-0.04 -2.36 -0.04 -4.72 0 -7.12 c0 -0.64 -0.24 -0.88 -0.88 -0.88 c-0.56 0.04 -1.08 0 -1.64 -0.04 c-0.4 0 -0.8 -0.04 -0.8 -0.56 s0.44 -0.52 0.8 -0.52 c1.28 0 2.56 0.12 3.8 0.08 c1.84 -0.08 3.72 -0.24 5.56 -0.32 c0.44 -0.04 1.08 -0.12 1.08 0.56 c0 0.6 -0.6 0.52 -1.04 0.56 l-1.8 0.12 c0 6.56 -0.04 12.12 -0.04 18.68 l1.64 -0.12 c0.36 0 1.08 -0.24 1.32 0.16 c0.12 0.2 0.12 0.44 0.08 0.64 c-0.12 0.52 -1 0.28 -1.4 0.32 l-2.68 0.16 c-1.76 0.12 -3.52 0.2 -5.28 0.32 z M111.68799999999999 31.96 l2.64 0 c-0.16 -6.48 0.28 -11.88 -0.12 -18.28 l-2.68 0 l0 2 c0 5.44 0 9.96 0.04 15.4 c0 0.32 0.08 0.64 0.12 0.88 z M143.48999999999998 36.84 c-1.36 -0.44 -2.28 -1.6 -3 -2.8 c-0.8 -1.28 -1.56 -2.56 -2.36 -3.88 c-0.68 -1.2 -1.44 -2.4 -1.88 -3.72 c-0.16 -0.52 -0.44 -0.96 -0.64 -1.44 c0 0 -0.08 -0.24 -0.12 -0.24 c-0.52 0.52 -1.04 0.96 -1.48 1.48 c-0.16 0.16 -0.12 0.52 -0.12 0.8 l0.16 4.52 c0.04 1.2 -0.2 1.44 -1.44 1.4 c-0.76 0 -1.56 0 -2.36 -0.12 c-0.8 -0.16 -1.04 -0.52 -1.08 -1.36 l-0.44 -13.6 c-0.04 -1.36 -0.12 -2.76 -0.12 -4.12 c-0.04 -0.88 0.24 -1.12 1.12 -1.12 l2.6 -0.04 c0.84 0 1.08 0.24 1.12 1.08 l0.32 10.4 c0 0.16 0 0.32 0.04 0.64 c0.24 -0.24 0.4 -0.36 0.56 -0.52 c2.48 -2.72 4.92 -7.88 7.44 -10.6 c0.16 -0.2 0.36 -0.44 0.56 -0.52 c0.2 -0.12 0.52 -0.08 0.64 0.04 c0.12 0.08 0.2 0.44 0.12 0.6 c-0.2 0.32 -0.44 0.6 -0.68 0.88 c-2.08 2.24 -3.24 5.2 -4.96 7.72 l-0.48 0.68 c-0.12 0.2 -0.4 0.44 -0.48 0.64 c-0.04 0.2 0.08 0.64 0.12 0.84 c0.08 0.4 0.2 0.76 0.4 1.12 c0.72 1.44 1.44 2.92 2.28 4.36 c0.68 1.2 1.44 2.44 2.24 3.6 c0.28 0.44 0.52 1.12 0.96 1.4 s0.96 0.04 1.36 -0.2 c0.44 -0.28 0.8 -0.64 1.2 -0.96 c0.48 -0.4 1.04 -0.64 1.68 -0.44 c1 0.28 1.28 1.48 0.56 2.48 c-0.8 1.12 -2.36 1.52 -3.84 1 z M132.32999999999998 31.880000000000003 c0.16 0 0.36 -0.04 0.64 -0.08 l-0.72 -18 l-2.48 0 l0 1 l0.48 15.2 c0.04 1.96 0.08 2 2.08 1.88 z M144.45 35.88 c0.44 0.04 0.92 0.04 1.32 -0.16 c0.16 -0.08 0.4 -0.2 0.48 -0.36 c0.12 -0.16 0.24 -0.56 0.12 -0.72 c-0.04 -0.04 -0.16 -0.08 -0.24 -0.04 c-0.36 0.04 -0.56 0.28 -0.84 0.48 z"></path>
  </g>
</svg>